Motion_pl06
version=1
nRows=6
nColumns=43
inDegrees=yes
endheader
time	pelvis_tilt	pelvis_list	pelvis_rotation	pelvis_tx	pelvis_ty	pelvis_tz	hip_flexion_r	hip_adduction_r	hip_rotation_r	knee_angle_r	ankle_angle_r	subtalar_angle_r	mtp_angle_r	hip_flexion_l	hip_adduction_l	hip_rotation_l	knee_angle_l	ankle_angle_l	subtalar_angle_l	mtp_angle_l	lumbar_extension	lumbar_bending	lumbar_rotation	neck_flexion	neck_lateral_bending	neck_rotation	arm_flex_r	arm_add_r	arm_rot_r	elbow_flex_r	pro_sup_r	wrist_flex_r	wrist_dev_r	hand_finger_flex_r	arm_flex_l	arm_add_l	arm_rot_l	elbow_flex_l	pro_sup_l	wrist_flex_l	wrist_dev_l	hand_finger_flex_l
      0.48750000	      4.23971805	    -31.66574921	     90.25508680	      0.01005278	      1.72508404	      1.64717322	     73.35810691	    -11.72725746	      4.47693572	   -133.35268283	     30.57047341	      9.63807084	    -12.47531643	     72.16500138	    -10.18485781	      6.33240220	   -132.84997126	     35.10969758	     -4.31708493	    -20.90318998	    -21.88083547	      1.51427687	      0.97378788	     28.87754878	      1.35172323	      6.62764266	    118.86404841	    -18.00875760	     44.45210180	     63.70847476	     54.78216884	    -28.91922380	    -15.77021237	     54.82075273	    126.81932550	    -22.94563452	     58.95527339	     69.50235229	     67.81790477	    -45.27925856	      9.36958570	     75.85220863
      0.49000000	      4.25667715	    -31.39181856	     90.35493525	      0.00979555	      1.72694633	      1.64151475	     72.64087954	    -11.79238674	      4.37947969	   -133.05254896	     29.41498419	      9.39983464	    -12.33412475	     71.46183204	    -10.10542726	      6.39448600	   -132.51978345	     34.06212911	     -4.23282545	    -20.93508476	    -21.91444746	      1.58301869	      0.86060989	     28.38389920	      1.31942414	      6.64905006	    118.97060582	    -17.97792793	     44.71324642	     63.48909657	     54.87012341	    -28.84888840	    -15.55871010	     54.76181216	    127.04418715	    -23.03390486	     59.45324186	     69.36923821	     68.06800989	    -45.20362075	      9.37633370	     75.91514155
      0.49250000	      4.26349425	    -31.12528499	     90.43960184	      0.00956598	      1.72875799	      1.63586057	     71.96467850	    -11.86188689	      4.27052013	   -132.75284774	     28.19573439	      9.10966259	    -12.19111176	     70.79942177	    -10.03235020	      6.44882613	   -132.19890844	     32.95754162	     -4.16973201	    -20.98556248	    -21.94149103	      1.63470917	      0.75102268	     27.90190910	      1.30237404	      6.66798174	    119.05285755	    -17.95778060	     44.96487523	     63.28402615	     55.00027971	    -28.78141889	    -15.36611994	     54.69760842	    127.26686695	    -23.12414710	     59.96545067	     69.23352543	     68.30576378	    -45.13066969	      9.37801210	     75.97782050
      0.49500000	      4.26016434	    -30.86126375	     90.51810541	      0.00935505	      1.73047993	      1.63020166	     71.33407298	    -11.93502001	      4.16715589	   -132.47416853	     26.88402433	      8.77630045	    -12.05580764	     70.17870775	     -9.96452432	      6.51001576	   -131.88364487	     31.76778844	     -4.12519008	    -21.06004080	    -21.96192269	      1.67498097	      0.64368217	     27.41362996	      1.30386652	      6.68262486	    119.12882111	    -17.94610646	     45.20605685	     63.08739868	     55.17384052	    -28.72138714	    -15.18658290	     54.63042181	    127.47874377	    -23.20982566	     60.50711172	     69.08599105	     68.53685480	    -45.05354478	      9.37716377	     76.03775694
      0.49750000	      4.23507977	    -30.70942060	     90.55713901	      0.00920333	      1.73200767	      1.62455513	     70.83734724	    -12.01379600	      4.08680847	   -132.17831951	     25.70285815	      8.64354490	    -12.03953248	     69.69736771	     -9.93785142	      6.53399363	   -131.57644175	     30.60682595	     -3.94715693	    -21.16913884	    -21.84813949	      1.67771167	      0.56779996	     26.75793094	      1.28551349	      6.67945650	    119.13577643	    -18.04576970	     45.48626353	     63.06688430	     55.33179734	    -28.65877298	    -15.06912838	     54.61606285	    127.60043052	    -23.34273152	     60.97753373	     69.08365289	     68.69777645	    -44.96143019	      9.39309363	     76.09132588
      0.50000000	      4.26803365	    -30.21473601	     90.69943534	      0.00900562	      1.73417350	      1.61877234	     70.01698185	    -12.12092734	      3.75471231	   -131.86337450	     23.91085052	      7.46254682	    -11.56534225	     68.89721086	     -9.85940352	      6.55396969	   -131.23558557	     29.12018613	     -4.47906388	    -21.24381838	    -22.19900392	      1.73630978	      0.35969065	     26.56528232	      1.41953835	      6.75379829	    119.24423317	    -17.97617034	     45.60427220	     62.81615986	     55.83073939	    -28.57891725	    -14.82799249	     54.44333761	    128.06018850	    -23.46211732	     61.77329729	     68.87898309	     69.09720168	    -44.85198607	      9.28493253	     76.19296552
